<svg xmlns="http://www.w3.org/2000/svg" width="8192" height="8192" viewBox="0 0 8192 8192"><rect width="8192" height="8192" fill="#000"/><g style="fill:#fff;stroke:#fff"><svg x="2278" y="620" width="760" height="230" viewBox="0 0 1500 420"><g fill="#eee8d8" transform="rotate(1.5 750 210)"><path d="M28 104l72-43 18 31-47 28 35 61-34 19-44-96Zm90 49c0-72 38-118 99-118 58 0 91 43 91 110 0 77-37 124-98 124-59 0-92-44-92-116Zm51-2c0 49 14 75 43 75 31 0 46-27 46-80 0-46-13-70-42-70-31 0-47 26-47 75Zm180-96h87c82 0 126 38 126 106 0 73-47 113-132 113h-81V55Zm54 44v132h26c50 0 77-23 77-68 0-43-25-64-74-64h-29Zm194-44h63l85 219h-57l-17-49h-91l-18 49h-54l89-219Zm30 56-32 75h62l-30-75Zm83-56h61l49 79 48-79h60l-83 127v92h-53v-92L710 55Zm219 0h59l44 92 44-92h57l-86 141v78h-53v-78L929 55Zm225 34c32-32 74-43 121-32 28 7 51 21 67 40l-36 32c-12-14-26-23-43-27-20-5-36-2-40 10-10 32 126 33 105 107-13 45-58 69-118 56-36-8-65-27-83-52l39-31c16 20 35 33 57 38 25 6 43 1 47-13 9-32-126-32-104-105 5-19 15-33 30-44Zm184-31 33 8-18 83-33-8 18-83Zm45 11 33 8-18 83-33-8 18-83Z"/></g></svg><svg x="2468" y="880" width="540" height="260" viewBox="0 0 900 430"><g fill="#eee8d8" stroke="#27251f" stroke-width="12"><path d="M35 84l238-32 132 85-6 213-242 35L38 302Z"/><path d="M474 91l228-22 143 79 2 209-235 34-142-76Z"/></g><g fill="#27251f"><circle cx="128" cy="139" r="21"/><circle cx="309" cy="291" r="21"/><circle cx="218" cy="215" r="21"/><circle cx="553" cy="151" r="21"/><circle cx="761" cy="291" r="21"/><circle cx="658" cy="221" r="21"/><circle cx="548" cy="303" r="21"/><circle cx="759" cy="157" r="21"/></g></svg><svg x="2498" y="1250" width="565" height="370" viewBox="0 0 1600 520"><path fill="#120f0d" d="M15 54c230 34 481 73 749 127 297 60 568 131 818 215-327-20-637-18-923 3-290 22-504 65-642 126 111-132 110-289-2-471Z"/><path fill="#eee8d8" d="M31 72l120 25-62 161L31 72Zm130 28 129 29-74 155-55-184Zm141 32 132 33-83 147-49-180Zm146 37 133 36-90 139-43-175Zm147 40 134 39-96 131-38-170Zm148 43 133 42-101 121-32-163Zm148 46 132 44-105 110-27-154Zm147 48 131 47-108 98-23-145Zm146 51 126 50-109 85-17-135Zm141 54 116 52-106 68-10-120Z"/><path fill="#eee8d8" d="M55 474l99-54 20 92-119-38Zm126-61 112-38 8 106-120-68Zm128-43 122-23-9 111-113-88Zm135-27 126-9-24 114-102-105Zm138-12 128 5-40 113-88-118Zm140 8 128 19-54 106-74-125Zm140 23 124 33-67 96-57-129Zm136 38 117 46-80 83-37-129Zm129 51 104 58-87 66-17-124Z"/></svg><svg x="2218" y="300" width="380" height="120" viewBox="0 0 900 280"><g fill="#eee8d8" transform="rotate(3 450 140) skewX(-10)"><path d="M29 62h132c73 0 107 29 100 81-4 34-25 56-61 66l49 70h-80l-40-61H92l-8 61H18L29 62Zm73 50-7 56h45c32 0 49-10 51-31 3-17-11-25-42-25h-47Zm186 58c8-70 56-114 125-114 67 0 105 43 97 113-8 71-56 116-125 116-67 0-105-44-97-115Zm68 0c-5 41 7 62 35 62 30 0 48-22 52-64 5-40-7-60-35-60-30 0-48 21-52 62Zm185-108h119c55 0 82 23 78 61-3 25-17 43-40 52 27 9 40 27 37 53-4 35-36 51-93 51H515l26-217Zm58 46-6 47h43c25 0 38-8 40-24 2-15-10-23-35-23h-42Zm-11 90-6 43h50c24 0 38-7 40-22 2-14-10-21-36-21h-48Zm178-136h119c55 0 82 23 78 61-3 25-17 43-40 52 27 9 40 27 37 53-4 35-36 51-93 51H740l26-217Zm58 46-6 47h43c25 0 38-8 40-24 2-15-10-23-35-23h-42Z"/></g></svg><svg x="2268" y="4700" width="770" height="230" viewBox="0 0 1500 420"><g fill="#eee8d8" transform="rotate(-2 750 210)"><path d="M35 112l68-45 19 28-45 29 38 59-32 20-48-91Zm87 43c0-71 37-117 96-117 56 0 88 43 88 109 0 75-36 122-95 122-57 0-89-44-89-114Zm49-2c0 48 13 74 42 74 30 0 45-27 45-79 0-45-13-69-41-69-30 0-46 26-46 74Zm175-97h84c81 0 124 37 124 104 0 72-46 112-130 112h-78V56Zm52 43v130h25c49 0 75-22 75-67 0-42-24-63-72-63h-28Zm189-43h62l83 216h-56l-16-48h-90l-17 48h-53l87-216Zm29 55-31 74h61l-30-74Zm81-55h60l48 78 47-78h59l-81 125v91h-52v-91L697 56Zm214 0h58l43 91 43-91h56l-84 139v77h-52v-77L911 56Zm221 33c31-31 72-42 118-31 27 6 50 20 65 39l-35 31c-12-13-25-22-42-26-20-5-35-2-39 10-10 31 123 32 102 105-12 44-56 68-115 55-35-8-64-26-81-51l38-30c16 20 34 32 56 37 24 6 42 1 46-13 9-31-123-31-102-103 5-18 15-32 29-43Zm181-30 32 7-18 82-32-7 18-82Zm43 10 32 7-18 82-32-7 18-82Z"/></g></svg><svg x="2458" y="4970" width="550" height="260" viewBox="0 0 900 430"><g fill="#eee8d8" stroke="#27251f" stroke-width="12"><path d="M42 92l242-42 126 92-14 209-245 31L42 283Z"/><path d="M470 105l231-35 144 85-5 206-239 28-137-79Z"/></g><g fill="#27251f"><circle cx="132" cy="145" r="22"/><circle cx="306" cy="289" r="22"/><circle cx="217" cy="220" r="22"/><circle cx="552" cy="160" r="22"/><circle cx="754" cy="292" r="22"/><circle cx="655" cy="226" r="22"/></g></svg><svg x="2488" y="5350" width="575" height="370" viewBox="0 0 1600 520"><path fill="#120f0d" d="M18 70C260 103 520 142 786 195c286 56 552 124 796 207-338-35-649-50-928-45-284 5-493 35-627 89 101-119 103-250-9-376Z"/><path fill="#eee8d8" d="M37 85l112 23-54 151-58-174Zm122 25 122 27-67 147-55-174Zm133 31 125 31-76 139-49-170Zm138 34 126 34-81 132-45-166Zm139 38 126 37-88 124-38-161Zm139 41 126 39-91 116-35-155Zm139 42 126 41-94 105-32-146Zm140 45 126 43-98 94-28-137Zm140 47 122 45-101 80-21-125Zm137 50 112 48-101 62-11-110Z"/><path fill="#eee8d8" d="M81 424l92-50 19 89-111-39Zm116-56 107-33 5 101-112-68Zm122-38 115-18-10 106-105-88Zm127-21 118-5-23 108-95-103Zm129-8 118 7-36 106-82-113Zm130 9 117 20-49 100-68-120Zm130 23 113 32-60 92-53-124Zm126 36 105 44-68 81-37-125Zm119 49 94 55-75 67-19-122Z"/></svg><svg x="2218" y="4400" width="380" height="120" viewBox="0 0 900 280"><g fill="#eee8d8" transform="skewX(-8)"><path d="M35 58h129c71 0 105 28 99 79-4 33-24 55-59 65l48 69h-78l-39-60H99l-8 60H26L35 58Zm72 49-7 55h44c31 0 48-10 50-30 3-17-11-25-41-25h-46Zm181 57c8-69 55-112 122-112 66 0 103 42 95 111-8 70-55 114-122 114-66 0-103-43-95-113Zm66 0c-4 40 7 61 35 61 29 0 46-22 51-63 4-39-7-59-35-59-29 0-46 21-51 61Zm181-106h116c54 0 80 22 76 60-3 24-16 42-39 51 27 9 39 27 36 52-4 34-35 50-91 50H510l25-213Zm57 45-6 46h42c24 0 37-8 39-24 2-15-10-22-34-22h-41Zm-11 88-5 42h48c24 0 37-7 39-21 2-14-10-21-35-21h-47Zm174-133h116c54 0 80 22 76 60-3 24-16 42-39 51 27 9 39 27 36 52-4 34-35 50-91 50H730l25-213Zm57 45-6 46h42c24 0 37-8 39-24 2-15-10-22-34-22h-41Z"/></g></svg><svg x="2738" y="4350" width="280" height="95" viewBox="0 0 760 260"><g fill="#eee8d8" transform="skewX(-7)"><path d="M31 39h68l-10 72h82l10-72h68l-26 184h-68l9-68H82l-9 68H5L31 39Zm250 0h68l-15 108c-4 27 8 40 34 40 27 0 42-13 46-40l15-108h68l-15 111c-7 52-42 78-101 78-58 0-84-27-77-80l16-109Zm226 0h176l-7 47H568l-4 31h94l-6 45h-94l-9 61h-68l26-184Zm197 0h174l-7 47H765l-5 33h91l-6 45h-91l-8 59h-68l26-184Z"/></g></svg><svg x="3302" y="620" width="760" height="230" viewBox="0 0 1500 420"><g fill="#eee8d8" transform="rotate(1.5 750 210)"><path d="M28 104l72-43 18 31-47 28 35 61-34 19-44-96Zm90 49c0-72 38-118 99-118 58 0 91 43 91 110 0 77-37 124-98 124-59 0-92-44-92-116Zm51-2c0 49 14 75 43 75 31 0 46-27 46-80 0-46-13-70-42-70-31 0-47 26-47 75Zm180-96h87c82 0 126 38 126 106 0 73-47 113-132 113h-81V55Zm54 44v132h26c50 0 77-23 77-68 0-43-25-64-74-64h-29Zm194-44h63l85 219h-57l-17-49h-91l-18 49h-54l89-219Zm30 56-32 75h62l-30-75Zm83-56h61l49 79 48-79h60l-83 127v92h-53v-92L710 55Zm219 0h59l44 92 44-92h57l-86 141v78h-53v-78L929 55Zm225 34c32-32 74-43 121-32 28 7 51 21 67 40l-36 32c-12-14-26-23-43-27-20-5-36-2-40 10-10 32 126 33 105 107-13 45-58 69-118 56-36-8-65-27-83-52l39-31c16 20 35 33 57 38 25 6 43 1 47-13 9-32-126-32-104-105 5-19 15-33 30-44Zm184-31 33 8-18 83-33-8 18-83Zm45 11 33 8-18 83-33-8 18-83Z"/></g></svg><svg x="3492" y="880" width="540" height="260" viewBox="0 0 900 430"><g fill="#eee8d8" stroke="#27251f" stroke-width="12"><path d="M35 84l238-32 132 85-6 213-242 35L38 302Z"/><path d="M474 91l228-22 143 79 2 209-235 34-142-76Z"/></g><g fill="#27251f"><circle cx="128" cy="139" r="21"/><circle cx="309" cy="291" r="21"/><circle cx="218" cy="215" r="21"/><circle cx="553" cy="151" r="21"/><circle cx="761" cy="291" r="21"/><circle cx="658" cy="221" r="21"/><circle cx="548" cy="303" r="21"/><circle cx="759" cy="157" r="21"/></g></svg><svg x="3522" y="1250" width="565" height="370" viewBox="0 0 1600 520"><path fill="#120f0d" d="M15 54c230 34 481 73 749 127 297 60 568 131 818 215-327-20-637-18-923 3-290 22-504 65-642 126 111-132 110-289-2-471Z"/><path fill="#eee8d8" d="M31 72l120 25-62 161L31 72Zm130 28 129 29-74 155-55-184Zm141 32 132 33-83 147-49-180Zm146 37 133 36-90 139-43-175Zm147 40 134 39-96 131-38-170Zm148 43 133 42-101 121-32-163Zm148 46 132 44-105 110-27-154Zm147 48 131 47-108 98-23-145Zm146 51 126 50-109 85-17-135Zm141 54 116 52-106 68-10-120Z"/><path fill="#eee8d8" d="M55 474l99-54 20 92-119-38Zm126-61 112-38 8 106-120-68Zm128-43 122-23-9 111-113-88Zm135-27 126-9-24 114-102-105Zm138-12 128 5-40 113-88-118Zm140 8 128 19-54 106-74-125Zm140 23 124 33-67 96-57-129Zm136 38 117 46-80 83-37-129Zm129 51 104 58-87 66-17-124Z"/></svg><svg x="3242" y="300" width="380" height="120" viewBox="0 0 900 280"><g fill="#eee8d8" transform="rotate(3 450 140) skewX(-10)"><path d="M29 62h132c73 0 107 29 100 81-4 34-25 56-61 66l49 70h-80l-40-61H92l-8 61H18L29 62Zm73 50-7 56h45c32 0 49-10 51-31 3-17-11-25-42-25h-47Zm186 58c8-70 56-114 125-114 67 0 105 43 97 113-8 71-56 116-125 116-67 0-105-44-97-115Zm68 0c-5 41 7 62 35 62 30 0 48-22 52-64 5-40-7-60-35-60-30 0-48 21-52 62Zm185-108h119c55 0 82 23 78 61-3 25-17 43-40 52 27 9 40 27 37 53-4 35-36 51-93 51H515l26-217Zm58 46-6 47h43c25 0 38-8 40-24 2-15-10-23-35-23h-42Zm-11 90-6 43h50c24 0 38-7 40-22 2-14-10-21-36-21h-48Zm178-136h119c55 0 82 23 78 61-3 25-17 43-40 52 27 9 40 27 37 53-4 35-36 51-93 51H740l26-217Zm58 46-6 47h43c25 0 38-8 40-24 2-15-10-23-35-23h-42Z"/></g></svg><svg x="3292" y="4700" width="770" height="230" viewBox="0 0 1500 420"><g fill="#eee8d8" transform="rotate(-2 750 210)"><path d="M35 112l68-45 19 28-45 29 38 59-32 20-48-91Zm87 43c0-71 37-117 96-117 56 0 88 43 88 109 0 75-36 122-95 122-57 0-89-44-89-114Zm49-2c0 48 13 74 42 74 30 0 45-27 45-79 0-45-13-69-41-69-30 0-46 26-46 74Zm175-97h84c81 0 124 37 124 104 0 72-46 112-130 112h-78V56Zm52 43v130h25c49 0 75-22 75-67 0-42-24-63-72-63h-28Zm189-43h62l83 216h-56l-16-48h-90l-17 48h-53l87-216Zm29 55-31 74h61l-30-74Zm81-55h60l48 78 47-78h59l-81 125v91h-52v-91L697 56Zm214 0h58l43 91 43-91h56l-84 139v77h-52v-77L911 56Zm221 33c31-31 72-42 118-31 27 6 50 20 65 39l-35 31c-12-13-25-22-42-26-20-5-35-2-39 10-10 31 123 32 102 105-12 44-56 68-115 55-35-8-64-26-81-51l38-30c16 20 34 32 56 37 24 6 42 1 46-13 9-31-123-31-102-103 5-18 15-32 29-43Zm181-30 32 7-18 82-32-7 18-82Zm43 10 32 7-18 82-32-7 18-82Z"/></g></svg><svg x="3482" y="4970" width="550" height="260" viewBox="0 0 900 430"><g fill="#eee8d8" stroke="#27251f" stroke-width="12"><path d="M42 92l242-42 126 92-14 209-245 31L42 283Z"/><path d="M470 105l231-35 144 85-5 206-239 28-137-79Z"/></g><g fill="#27251f"><circle cx="132" cy="145" r="22"/><circle cx="306" cy="289" r="22"/><circle cx="217" cy="220" r="22"/><circle cx="552" cy="160" r="22"/><circle cx="754" cy="292" r="22"/><circle cx="655" cy="226" r="22"/></g></svg><svg x="3512" y="5350" width="575" height="370" viewBox="0 0 1600 520"><path fill="#120f0d" d="M18 70C260 103 520 142 786 195c286 56 552 124 796 207-338-35-649-50-928-45-284 5-493 35-627 89 101-119 103-250-9-376Z"/><path fill="#eee8d8" d="M37 85l112 23-54 151-58-174Zm122 25 122 27-67 147-55-174Zm133 31 125 31-76 139-49-170Zm138 34 126 34-81 132-45-166Zm139 38 126 37-88 124-38-161Zm139 41 126 39-91 116-35-155Zm139 42 126 41-94 105-32-146Zm140 45 126 43-98 94-28-137Zm140 47 122 45-101 80-21-125Zm137 50 112 48-101 62-11-110Z"/><path fill="#eee8d8" d="M81 424l92-50 19 89-111-39Zm116-56 107-33 5 101-112-68Zm122-38 115-18-10 106-105-88Zm127-21 118-5-23 108-95-103Zm129-8 118 7-36 106-82-113Zm130 9 117 20-49 100-68-120Zm130 23 113 32-60 92-53-124Zm126 36 105 44-68 81-37-125Zm119 49 94 55-75 67-19-122Z"/></svg><svg x="3242" y="4400" width="380" height="120" viewBox="0 0 900 280"><g fill="#eee8d8" transform="skewX(-8)"><path d="M35 58h129c71 0 105 28 99 79-4 33-24 55-59 65l48 69h-78l-39-60H99l-8 60H26L35 58Zm72 49-7 55h44c31 0 48-10 50-30 3-17-11-25-41-25h-46Zm181 57c8-69 55-112 122-112 66 0 103 42 95 111-8 70-55 114-122 114-66 0-103-43-95-113Zm66 0c-4 40 7 61 35 61 29 0 46-22 51-63 4-39-7-59-35-59-29 0-46 21-51 61Zm181-106h116c54 0 80 22 76 60-3 24-16 42-39 51 27 9 39 27 36 52-4 34-35 50-91 50H510l25-213Zm57 45-6 46h42c24 0 37-8 39-24 2-15-10-22-34-22h-41Zm-11 88-5 42h48c24 0 37-7 39-21 2-14-10-21-35-21h-47Zm174-133h116c54 0 80 22 76 60-3 24-16 42-39 51 27 9 39 27 36 52-4 34-35 50-91 50H730l25-213Zm57 45-6 46h42c24 0 37-8 39-24 2-15-10-22-34-22h-41Z"/></g></svg><svg x="3762" y="4350" width="280" height="95" viewBox="0 0 760 260"><g fill="#eee8d8" transform="skewX(-7)"><path d="M31 39h68l-10 72h82l10-72h68l-26 184h-68l9-68H82l-9 68H5L31 39Zm250 0h68l-15 108c-4 27 8 40 34 40 27 0 42-13 46-40l15-108h68l-15 111c-7 52-42 78-101 78-58 0-84-27-77-80l16-109Zm226 0h176l-7 47H568l-4 31h94l-6 45h-94l-9 61h-68l26-184Zm197 0h174l-7 47H765l-5 33h91l-6 45h-91l-8 59h-68l26-184Z"/></g></svg><svg x="4326" y="620" width="760" height="230" viewBox="0 0 1500 420"><g fill="#eee8d8" transform="rotate(1.5 750 210)"><path d="M28 104l72-43 18 31-47 28 35 61-34 19-44-96Zm90 49c0-72 38-118 99-118 58 0 91 43 91 110 0 77-37 124-98 124-59 0-92-44-92-116Zm51-2c0 49 14 75 43 75 31 0 46-27 46-80 0-46-13-70-42-70-31 0-47 26-47 75Zm180-96h87c82 0 126 38 126 106 0 73-47 113-132 113h-81V55Zm54 44v132h26c50 0 77-23 77-68 0-43-25-64-74-64h-29Zm194-44h63l85 219h-57l-17-49h-91l-18 49h-54l89-219Zm30 56-32 75h62l-30-75Zm83-56h61l49 79 48-79h60l-83 127v92h-53v-92L710 55Zm219 0h59l44 92 44-92h57l-86 141v78h-53v-78L929 55Zm225 34c32-32 74-43 121-32 28 7 51 21 67 40l-36 32c-12-14-26-23-43-27-20-5-36-2-40 10-10 32 126 33 105 107-13 45-58 69-118 56-36-8-65-27-83-52l39-31c16 20 35 33 57 38 25 6 43 1 47-13 9-32-126-32-104-105 5-19 15-33 30-44Zm184-31 33 8-18 83-33-8 18-83Zm45 11 33 8-18 83-33-8 18-83Z"/></g></svg><svg x="4516" y="880" width="540" height="260" viewBox="0 0 900 430"><g fill="#eee8d8" stroke="#27251f" stroke-width="12"><path d="M35 84l238-32 132 85-6 213-242 35L38 302Z"/><path d="M474 91l228-22 143 79 2 209-235 34-142-76Z"/></g><g fill="#27251f"><circle cx="128" cy="139" r="21"/><circle cx="309" cy="291" r="21"/><circle cx="218" cy="215" r="21"/><circle cx="553" cy="151" r="21"/><circle cx="761" cy="291" r="21"/><circle cx="658" cy="221" r="21"/><circle cx="548" cy="303" r="21"/><circle cx="759" cy="157" r="21"/></g></svg><svg x="4546" y="1250" width="565" height="370" viewBox="0 0 1600 520"><path fill="#120f0d" d="M15 54c230 34 481 73 749 127 297 60 568 131 818 215-327-20-637-18-923 3-290 22-504 65-642 126 111-132 110-289-2-471Z"/><path fill="#eee8d8" d="M31 72l120 25-62 161L31 72Zm130 28 129 29-74 155-55-184Zm141 32 132 33-83 147-49-180Zm146 37 133 36-90 139-43-175Zm147 40 134 39-96 131-38-170Zm148 43 133 42-101 121-32-163Zm148 46 132 44-105 110-27-154Zm147 48 131 47-108 98-23-145Zm146 51 126 50-109 85-17-135Zm141 54 116 52-106 68-10-120Z"/><path fill="#eee8d8" d="M55 474l99-54 20 92-119-38Zm126-61 112-38 8 106-120-68Zm128-43 122-23-9 111-113-88Zm135-27 126-9-24 114-102-105Zm138-12 128 5-40 113-88-118Zm140 8 128 19-54 106-74-125Zm140 23 124 33-67 96-57-129Zm136 38 117 46-80 83-37-129Zm129 51 104 58-87 66-17-124Z"/></svg><svg x="4266" y="300" width="380" height="120" viewBox="0 0 900 280"><g fill="#eee8d8" transform="rotate(3 450 140) skewX(-10)"><path d="M29 62h132c73 0 107 29 100 81-4 34-25 56-61 66l49 70h-80l-40-61H92l-8 61H18L29 62Zm73 50-7 56h45c32 0 49-10 51-31 3-17-11-25-42-25h-47Zm186 58c8-70 56-114 125-114 67 0 105 43 97 113-8 71-56 116-125 116-67 0-105-44-97-115Zm68 0c-5 41 7 62 35 62 30 0 48-22 52-64 5-40-7-60-35-60-30 0-48 21-52 62Zm185-108h119c55 0 82 23 78 61-3 25-17 43-40 52 27 9 40 27 37 53-4 35-36 51-93 51H515l26-217Zm58 46-6 47h43c25 0 38-8 40-24 2-15-10-23-35-23h-42Zm-11 90-6 43h50c24 0 38-7 40-22 2-14-10-21-36-21h-48Zm178-136h119c55 0 82 23 78 61-3 25-17 43-40 52 27 9 40 27 37 53-4 35-36 51-93 51H740l26-217Zm58 46-6 47h43c25 0 38-8 40-24 2-15-10-23-35-23h-42Z"/></g></svg><svg x="4316" y="4700" width="770" height="230" viewBox="0 0 1500 420"><g fill="#eee8d8" transform="rotate(-2 750 210)"><path d="M35 112l68-45 19 28-45 29 38 59-32 20-48-91Zm87 43c0-71 37-117 96-117 56 0 88 43 88 109 0 75-36 122-95 122-57 0-89-44-89-114Zm49-2c0 48 13 74 42 74 30 0 45-27 45-79 0-45-13-69-41-69-30 0-46 26-46 74Zm175-97h84c81 0 124 37 124 104 0 72-46 112-130 112h-78V56Zm52 43v130h25c49 0 75-22 75-67 0-42-24-63-72-63h-28Zm189-43h62l83 216h-56l-16-48h-90l-17 48h-53l87-216Zm29 55-31 74h61l-30-74Zm81-55h60l48 78 47-78h59l-81 125v91h-52v-91L697 56Zm214 0h58l43 91 43-91h56l-84 139v77h-52v-77L911 56Zm221 33c31-31 72-42 118-31 27 6 50 20 65 39l-35 31c-12-13-25-22-42-26-20-5-35-2-39 10-10 31 123 32 102 105-12 44-56 68-115 55-35-8-64-26-81-51l38-30c16 20 34 32 56 37 24 6 42 1 46-13 9-31-123-31-102-103 5-18 15-32 29-43Zm181-30 32 7-18 82-32-7 18-82Zm43 10 32 7-18 82-32-7 18-82Z"/></g></svg><svg x="4506" y="4970" width="550" height="260" viewBox="0 0 900 430"><g fill="#eee8d8" stroke="#27251f" stroke-width="12"><path d="M42 92l242-42 126 92-14 209-245 31L42 283Z"/><path d="M470 105l231-35 144 85-5 206-239 28-137-79Z"/></g><g fill="#27251f"><circle cx="132" cy="145" r="22"/><circle cx="306" cy="289" r="22"/><circle cx="217" cy="220" r="22"/><circle cx="552" cy="160" r="22"/><circle cx="754" cy="292" r="22"/><circle cx="655" cy="226" r="22"/></g></svg><svg x="4536" y="5350" width="575" height="370" viewBox="0 0 1600 520"><path fill="#120f0d" d="M18 70C260 103 520 142 786 195c286 56 552 124 796 207-338-35-649-50-928-45-284 5-493 35-627 89 101-119 103-250-9-376Z"/><path fill="#eee8d8" d="M37 85l112 23-54 151-58-174Zm122 25 122 27-67 147-55-174Zm133 31 125 31-76 139-49-170Zm138 34 126 34-81 132-45-166Zm139 38 126 37-88 124-38-161Zm139 41 126 39-91 116-35-155Zm139 42 126 41-94 105-32-146Zm140 45 126 43-98 94-28-137Zm140 47 122 45-101 80-21-125Zm137 50 112 48-101 62-11-110Z"/><path fill="#eee8d8" d="M81 424l92-50 19 89-111-39Zm116-56 107-33 5 101-112-68Zm122-38 115-18-10 106-105-88Zm127-21 118-5-23 108-95-103Zm129-8 118 7-36 106-82-113Zm130 9 117 20-49 100-68-120Zm130 23 113 32-60 92-53-124Zm126 36 105 44-68 81-37-125Zm119 49 94 55-75 67-19-122Z"/></svg><svg x="4266" y="4400" width="380" height="120" viewBox="0 0 900 280"><g fill="#eee8d8" transform="skewX(-8)"><path d="M35 58h129c71 0 105 28 99 79-4 33-24 55-59 65l48 69h-78l-39-60H99l-8 60H26L35 58Zm72 49-7 55h44c31 0 48-10 50-30 3-17-11-25-41-25h-46Zm181 57c8-69 55-112 122-112 66 0 103 42 95 111-8 70-55 114-122 114-66 0-103-43-95-113Zm66 0c-4 40 7 61 35 61 29 0 46-22 51-63 4-39-7-59-35-59-29 0-46 21-51 61Zm181-106h116c54 0 80 22 76 60-3 24-16 42-39 51 27 9 39 27 36 52-4 34-35 50-91 50H510l25-213Zm57 45-6 46h42c24 0 37-8 39-24 2-15-10-22-34-22h-41Zm-11 88-5 42h48c24 0 37-7 39-21 2-14-10-21-35-21h-47Zm174-133h116c54 0 80 22 76 60-3 24-16 42-39 51 27 9 39 27 36 52-4 34-35 50-91 50H730l25-213Zm57 45-6 46h42c24 0 37-8 39-24 2-15-10-22-34-22h-41Z"/></g></svg><svg x="4786" y="4350" width="280" height="95" viewBox="0 0 760 260"><g fill="#eee8d8" transform="skewX(-7)"><path d="M31 39h68l-10 72h82l10-72h68l-26 184h-68l9-68H82l-9 68H5L31 39Zm250 0h68l-15 108c-4 27 8 40 34 40 27 0 42-13 46-40l15-108h68l-15 111c-7 52-42 78-101 78-58 0-84-27-77-80l16-109Zm226 0h176l-7 47H568l-4 31h94l-6 45h-94l-9 61h-68l26-184Zm197 0h174l-7 47H765l-5 33h91l-6 45h-91l-8 59h-68l26-184Z"/></g></svg><svg x="5350" y="620" width="760" height="230" viewBox="0 0 1500 420"><g fill="#eee8d8" transform="rotate(1.5 750 210)"><path d="M28 104l72-43 18 31-47 28 35 61-34 19-44-96Zm90 49c0-72 38-118 99-118 58 0 91 43 91 110 0 77-37 124-98 124-59 0-92-44-92-116Zm51-2c0 49 14 75 43 75 31 0 46-27 46-80 0-46-13-70-42-70-31 0-47 26-47 75Zm180-96h87c82 0 126 38 126 106 0 73-47 113-132 113h-81V55Zm54 44v132h26c50 0 77-23 77-68 0-43-25-64-74-64h-29Zm194-44h63l85 219h-57l-17-49h-91l-18 49h-54l89-219Zm30 56-32 75h62l-30-75Zm83-56h61l49 79 48-79h60l-83 127v92h-53v-92L710 55Zm219 0h59l44 92 44-92h57l-86 141v78h-53v-78L929 55Zm225 34c32-32 74-43 121-32 28 7 51 21 67 40l-36 32c-12-14-26-23-43-27-20-5-36-2-40 10-10 32 126 33 105 107-13 45-58 69-118 56-36-8-65-27-83-52l39-31c16 20 35 33 57 38 25 6 43 1 47-13 9-32-126-32-104-105 5-19 15-33 30-44Zm184-31 33 8-18 83-33-8 18-83Zm45 11 33 8-18 83-33-8 18-83Z"/></g></svg><svg x="5540" y="880" width="540" height="260" viewBox="0 0 900 430"><g fill="#eee8d8" stroke="#27251f" stroke-width="12"><path d="M35 84l238-32 132 85-6 213-242 35L38 302Z"/><path d="M474 91l228-22 143 79 2 209-235 34-142-76Z"/></g><g fill="#27251f"><circle cx="128" cy="139" r="21"/><circle cx="309" cy="291" r="21"/><circle cx="218" cy="215" r="21"/><circle cx="553" cy="151" r="21"/><circle cx="761" cy="291" r="21"/><circle cx="658" cy="221" r="21"/><circle cx="548" cy="303" r="21"/><circle cx="759" cy="157" r="21"/></g></svg><svg x="5570" y="1250" width="565" height="370" viewBox="0 0 1600 520"><path fill="#120f0d" d="M15 54c230 34 481 73 749 127 297 60 568 131 818 215-327-20-637-18-923 3-290 22-504 65-642 126 111-132 110-289-2-471Z"/><path fill="#eee8d8" d="M31 72l120 25-62 161L31 72Zm130 28 129 29-74 155-55-184Zm141 32 132 33-83 147-49-180Zm146 37 133 36-90 139-43-175Zm147 40 134 39-96 131-38-170Zm148 43 133 42-101 121-32-163Zm148 46 132 44-105 110-27-154Zm147 48 131 47-108 98-23-145Zm146 51 126 50-109 85-17-135Zm141 54 116 52-106 68-10-120Z"/><path fill="#eee8d8" d="M55 474l99-54 20 92-119-38Zm126-61 112-38 8 106-120-68Zm128-43 122-23-9 111-113-88Zm135-27 126-9-24 114-102-105Zm138-12 128 5-40 113-88-118Zm140 8 128 19-54 106-74-125Zm140 23 124 33-67 96-57-129Zm136 38 117 46-80 83-37-129Zm129 51 104 58-87 66-17-124Z"/></svg><svg x="5290" y="300" width="380" height="120" viewBox="0 0 900 280"><g fill="#eee8d8" transform="rotate(3 450 140) skewX(-10)"><path d="M29 62h132c73 0 107 29 100 81-4 34-25 56-61 66l49 70h-80l-40-61H92l-8 61H18L29 62Zm73 50-7 56h45c32 0 49-10 51-31 3-17-11-25-42-25h-47Zm186 58c8-70 56-114 125-114 67 0 105 43 97 113-8 71-56 116-125 116-67 0-105-44-97-115Zm68 0c-5 41 7 62 35 62 30 0 48-22 52-64 5-40-7-60-35-60-30 0-48 21-52 62Zm185-108h119c55 0 82 23 78 61-3 25-17 43-40 52 27 9 40 27 37 53-4 35-36 51-93 51H515l26-217Zm58 46-6 47h43c25 0 38-8 40-24 2-15-10-23-35-23h-42Zm-11 90-6 43h50c24 0 38-7 40-22 2-14-10-21-36-21h-48Zm178-136h119c55 0 82 23 78 61-3 25-17 43-40 52 27 9 40 27 37 53-4 35-36 51-93 51H740l26-217Zm58 46-6 47h43c25 0 38-8 40-24 2-15-10-23-35-23h-42Z"/></g></svg><svg x="5340" y="4700" width="770" height="230" viewBox="0 0 1500 420"><g fill="#eee8d8" transform="rotate(-2 750 210)"><path d="M35 112l68-45 19 28-45 29 38 59-32 20-48-91Zm87 43c0-71 37-117 96-117 56 0 88 43 88 109 0 75-36 122-95 122-57 0-89-44-89-114Zm49-2c0 48 13 74 42 74 30 0 45-27 45-79 0-45-13-69-41-69-30 0-46 26-46 74Zm175-97h84c81 0 124 37 124 104 0 72-46 112-130 112h-78V56Zm52 43v130h25c49 0 75-22 75-67 0-42-24-63-72-63h-28Zm189-43h62l83 216h-56l-16-48h-90l-17 48h-53l87-216Zm29 55-31 74h61l-30-74Zm81-55h60l48 78 47-78h59l-81 125v91h-52v-91L697 56Zm214 0h58l43 91 43-91h56l-84 139v77h-52v-77L911 56Zm221 33c31-31 72-42 118-31 27 6 50 20 65 39l-35 31c-12-13-25-22-42-26-20-5-35-2-39 10-10 31 123 32 102 105-12 44-56 68-115 55-35-8-64-26-81-51l38-30c16 20 34 32 56 37 24 6 42 1 46-13 9-31-123-31-102-103 5-18 15-32 29-43Zm181-30 32 7-18 82-32-7 18-82Zm43 10 32 7-18 82-32-7 18-82Z"/></g></svg><svg x="5530" y="4970" width="550" height="260" viewBox="0 0 900 430"><g fill="#eee8d8" stroke="#27251f" stroke-width="12"><path d="M42 92l242-42 126 92-14 209-245 31L42 283Z"/><path d="M470 105l231-35 144 85-5 206-239 28-137-79Z"/></g><g fill="#27251f"><circle cx="132" cy="145" r="22"/><circle cx="306" cy="289" r="22"/><circle cx="217" cy="220" r="22"/><circle cx="552" cy="160" r="22"/><circle cx="754" cy="292" r="22"/><circle cx="655" cy="226" r="22"/></g></svg><svg x="5560" y="5350" width="575" height="370" viewBox="0 0 1600 520"><path fill="#120f0d" d="M18 70C260 103 520 142 786 195c286 56 552 124 796 207-338-35-649-50-928-45-284 5-493 35-627 89 101-119 103-250-9-376Z"/><path fill="#eee8d8" d="M37 85l112 23-54 151-58-174Zm122 25 122 27-67 147-55-174Zm133 31 125 31-76 139-49-170Zm138 34 126 34-81 132-45-166Zm139 38 126 37-88 124-38-161Zm139 41 126 39-91 116-35-155Zm139 42 126 41-94 105-32-146Zm140 45 126 43-98 94-28-137Zm140 47 122 45-101 80-21-125Zm137 50 112 48-101 62-11-110Z"/><path fill="#eee8d8" d="M81 424l92-50 19 89-111-39Zm116-56 107-33 5 101-112-68Zm122-38 115-18-10 106-105-88Zm127-21 118-5-23 108-95-103Zm129-8 118 7-36 106-82-113Zm130 9 117 20-49 100-68-120Zm130 23 113 32-60 92-53-124Zm126 36 105 44-68 81-37-125Zm119 49 94 55-75 67-19-122Z"/></svg><svg x="5290" y="4400" width="380" height="120" viewBox="0 0 900 280"><g fill="#eee8d8" transform="skewX(-8)"><path d="M35 58h129c71 0 105 28 99 79-4 33-24 55-59 65l48 69h-78l-39-60H99l-8 60H26L35 58Zm72 49-7 55h44c31 0 48-10 50-30 3-17-11-25-41-25h-46Zm181 57c8-69 55-112 122-112 66 0 103 42 95 111-8 70-55 114-122 114-66 0-103-43-95-113Zm66 0c-4 40 7 61 35 61 29 0 46-22 51-63 4-39-7-59-35-59-29 0-46 21-51 61Zm181-106h116c54 0 80 22 76 60-3 24-16 42-39 51 27 9 39 27 36 52-4 34-35 50-91 50H510l25-213Zm57 45-6 46h42c24 0 37-8 39-24 2-15-10-22-34-22h-41Zm-11 88-5 42h48c24 0 37-7 39-21 2-14-10-21-35-21h-47Zm174-133h116c54 0 80 22 76 60-3 24-16 42-39 51 27 9 39 27 36 52-4 34-35 50-91 50H730l25-213Zm57 45-6 46h42c24 0 37-8 39-24 2-15-10-22-34-22h-41Z"/></g></svg><svg x="5810" y="4350" width="280" height="95" viewBox="0 0 760 260"><g fill="#eee8d8" transform="skewX(-7)"><path d="M31 39h68l-10 72h82l10-72h68l-26 184h-68l9-68H82l-9 68H5L31 39Zm250 0h68l-15 108c-4 27 8 40 34 40 27 0 42-13 46-40l15-108h68l-15 111c-7 52-42 78-101 78-58 0-84-27-77-80l16-109Zm226 0h176l-7 47H568l-4 31h94l-6 45h-94l-9 61h-68l26-184Zm197 0h174l-7 47H765l-5 33h91l-6 45h-91l-8 59h-68l26-184Z"/></g></svg><svg x="5730" y="360" width="340" height="100" viewBox="0 0 900 260"><g fill="#eee8d8" transform="rotate(8 450 130) skewX(-8)"><path d="M28 73c45-42 126-46 182-15l-28 45c-37-20-78-19-94-5-25 23 112 24 103 94-6 48-61 69-126 53-31-8-55-22-71-40l34-40c25 25 69 39 91 22 26-21-113-25-102-94 1-7 5-14 11-20Zm190-28h214l-7 54h-72l-19 143h-70l20-143h-73l7-54Zm234 0h81l68 197h-74l-10-35h-82l-20 35h-75L452 45Zm43 57-35 59h45l-10-59Zm137-57h91l31 109 62-109h91l-27 197h-65l17-120-68 120h-49l-36-120-16 120h-65l27-197Z"/></g></svg><svg x="5510" y="450" width="560" height="82" viewBox="0 0 1600 230"><g fill="#eee8d8" stroke="#302e29" stroke-width="8"><path d="M25 42l168 8-8 131-164-7Z"/><path d="M216 49l168 7-5 130-165-6Z"/><path d="M407 55l168 6-3 130-165-5Z"/><path d="M598 60l168 5-1 130-165-4Z"/><path d="M789 64l168 4 2 130-165-3Z"/><path d="M980 68l168 3 4 130-165-2Z"/><path d="M1171 71l168 2 7 130-165-1Z"/><path d="M1362 73l168 1 9 130-165 1Z"/></g><g fill="#292722"><circle cx="107" cy="112" r="31"/><circle cx="298" cy="117" r="31"/><circle cx="489" cy="122" r="31"/><circle cx="681" cy="126" r="31"/><circle cx="873" cy="130" r="31"/><circle cx="1065" cy="134" r="31"/><circle cx="1257" cy="137" r="31"/><circle cx="1449" cy="140" r="31"/></g></svg><svg x="6374" y="620" width="760" height="230" viewBox="0 0 1500 420"><g fill="#eee8d8" transform="rotate(1.5 750 210)"><path d="M28 104l72-43 18 31-47 28 35 61-34 19-44-96Zm90 49c0-72 38-118 99-118 58 0 91 43 91 110 0 77-37 124-98 124-59 0-92-44-92-116Zm51-2c0 49 14 75 43 75 31 0 46-27 46-80 0-46-13-70-42-70-31 0-47 26-47 75Zm180-96h87c82 0 126 38 126 106 0 73-47 113-132 113h-81V55Zm54 44v132h26c50 0 77-23 77-68 0-43-25-64-74-64h-29Zm194-44h63l85 219h-57l-17-49h-91l-18 49h-54l89-219Zm30 56-32 75h62l-30-75Zm83-56h61l49 79 48-79h60l-83 127v92h-53v-92L710 55Zm219 0h59l44 92 44-92h57l-86 141v78h-53v-78L929 55Zm225 34c32-32 74-43 121-32 28 7 51 21 67 40l-36 32c-12-14-26-23-43-27-20-5-36-2-40 10-10 32 126 33 105 107-13 45-58 69-118 56-36-8-65-27-83-52l39-31c16 20 35 33 57 38 25 6 43 1 47-13 9-32-126-32-104-105 5-19 15-33 30-44Zm184-31 33 8-18 83-33-8 18-83Zm45 11 33 8-18 83-33-8 18-83Z"/></g></svg><svg x="6564" y="880" width="540" height="260" viewBox="0 0 900 430"><g fill="#eee8d8" stroke="#27251f" stroke-width="12"><path d="M35 84l238-32 132 85-6 213-242 35L38 302Z"/><path d="M474 91l228-22 143 79 2 209-235 34-142-76Z"/></g><g fill="#27251f"><circle cx="128" cy="139" r="21"/><circle cx="309" cy="291" r="21"/><circle cx="218" cy="215" r="21"/><circle cx="553" cy="151" r="21"/><circle cx="761" cy="291" r="21"/><circle cx="658" cy="221" r="21"/><circle cx="548" cy="303" r="21"/><circle cx="759" cy="157" r="21"/></g></svg><svg x="6594" y="1250" width="565" height="370" viewBox="0 0 1600 520"><path fill="#120f0d" d="M15 54c230 34 481 73 749 127 297 60 568 131 818 215-327-20-637-18-923 3-290 22-504 65-642 126 111-132 110-289-2-471Z"/><path fill="#eee8d8" d="M31 72l120 25-62 161L31 72Zm130 28 129 29-74 155-55-184Zm141 32 132 33-83 147-49-180Zm146 37 133 36-90 139-43-175Zm147 40 134 39-96 131-38-170Zm148 43 133 42-101 121-32-163Zm148 46 132 44-105 110-27-154Zm147 48 131 47-108 98-23-145Zm146 51 126 50-109 85-17-135Zm141 54 116 52-106 68-10-120Z"/><path fill="#eee8d8" d="M55 474l99-54 20 92-119-38Zm126-61 112-38 8 106-120-68Zm128-43 122-23-9 111-113-88Zm135-27 126-9-24 114-102-105Zm138-12 128 5-40 113-88-118Zm140 8 128 19-54 106-74-125Zm140 23 124 33-67 96-57-129Zm136 38 117 46-80 83-37-129Zm129 51 104 58-87 66-17-124Z"/></svg><svg x="6314" y="300" width="380" height="120" viewBox="0 0 900 280"><g fill="#eee8d8" transform="rotate(3 450 140) skewX(-10)"><path d="M29 62h132c73 0 107 29 100 81-4 34-25 56-61 66l49 70h-80l-40-61H92l-8 61H18L29 62Zm73 50-7 56h45c32 0 49-10 51-31 3-17-11-25-42-25h-47Zm186 58c8-70 56-114 125-114 67 0 105 43 97 113-8 71-56 116-125 116-67 0-105-44-97-115Zm68 0c-5 41 7 62 35 62 30 0 48-22 52-64 5-40-7-60-35-60-30 0-48 21-52 62Zm185-108h119c55 0 82 23 78 61-3 25-17 43-40 52 27 9 40 27 37 53-4 35-36 51-93 51H515l26-217Zm58 46-6 47h43c25 0 38-8 40-24 2-15-10-23-35-23h-42Zm-11 90-6 43h50c24 0 38-7 40-22 2-14-10-21-36-21h-48Zm178-136h119c55 0 82 23 78 61-3 25-17 43-40 52 27 9 40 27 37 53-4 35-36 51-93 51H740l26-217Zm58 46-6 47h43c25 0 38-8 40-24 2-15-10-23-35-23h-42Z"/></g></svg><svg x="6364" y="4700" width="770" height="230" viewBox="0 0 1500 420"><g fill="#eee8d8" transform="rotate(-2 750 210)"><path d="M35 112l68-45 19 28-45 29 38 59-32 20-48-91Zm87 43c0-71 37-117 96-117 56 0 88 43 88 109 0 75-36 122-95 122-57 0-89-44-89-114Zm49-2c0 48 13 74 42 74 30 0 45-27 45-79 0-45-13-69-41-69-30 0-46 26-46 74Zm175-97h84c81 0 124 37 124 104 0 72-46 112-130 112h-78V56Zm52 43v130h25c49 0 75-22 75-67 0-42-24-63-72-63h-28Zm189-43h62l83 216h-56l-16-48h-90l-17 48h-53l87-216Zm29 55-31 74h61l-30-74Zm81-55h60l48 78 47-78h59l-81 125v91h-52v-91L697 56Zm214 0h58l43 91 43-91h56l-84 139v77h-52v-77L911 56Zm221 33c31-31 72-42 118-31 27 6 50 20 65 39l-35 31c-12-13-25-22-42-26-20-5-35-2-39 10-10 31 123 32 102 105-12 44-56 68-115 55-35-8-64-26-81-51l38-30c16 20 34 32 56 37 24 6 42 1 46-13 9-31-123-31-102-103 5-18 15-32 29-43Zm181-30 32 7-18 82-32-7 18-82Zm43 10 32 7-18 82-32-7 18-82Z"/></g></svg><svg x="6554" y="4970" width="550" height="260" viewBox="0 0 900 430"><g fill="#eee8d8" stroke="#27251f" stroke-width="12"><path d="M42 92l242-42 126 92-14 209-245 31L42 283Z"/><path d="M470 105l231-35 144 85-5 206-239 28-137-79Z"/></g><g fill="#27251f"><circle cx="132" cy="145" r="22"/><circle cx="306" cy="289" r="22"/><circle cx="217" cy="220" r="22"/><circle cx="552" cy="160" r="22"/><circle cx="754" cy="292" r="22"/><circle cx="655" cy="226" r="22"/></g></svg><svg x="6584" y="5350" width="575" height="370" viewBox="0 0 1600 520"><path fill="#120f0d" d="M18 70C260 103 520 142 786 195c286 56 552 124 796 207-338-35-649-50-928-45-284 5-493 35-627 89 101-119 103-250-9-376Z"/><path fill="#eee8d8" d="M37 85l112 23-54 151-58-174Zm122 25 122 27-67 147-55-174Zm133 31 125 31-76 139-49-170Zm138 34 126 34-81 132-45-166Zm139 38 126 37-88 124-38-161Zm139 41 126 39-91 116-35-155Zm139 42 126 41-94 105-32-146Zm140 45 126 43-98 94-28-137Zm140 47 122 45-101 80-21-125Zm137 50 112 48-101 62-11-110Z"/><path fill="#eee8d8" d="M81 424l92-50 19 89-111-39Zm116-56 107-33 5 101-112-68Zm122-38 115-18-10 106-105-88Zm127-21 118-5-23 108-95-103Zm129-8 118 7-36 106-82-113Zm130 9 117 20-49 100-68-120Zm130 23 113 32-60 92-53-124Zm126 36 105 44-68 81-37-125Zm119 49 94 55-75 67-19-122Z"/></svg><svg x="6314" y="4400" width="380" height="120" viewBox="0 0 900 280"><g fill="#eee8d8" transform="skewX(-8)"><path d="M35 58h129c71 0 105 28 99 79-4 33-24 55-59 65l48 69h-78l-39-60H99l-8 60H26L35 58Zm72 49-7 55h44c31 0 48-10 50-30 3-17-11-25-41-25h-46Zm181 57c8-69 55-112 122-112 66 0 103 42 95 111-8 70-55 114-122 114-66 0-103-43-95-113Zm66 0c-4 40 7 61 35 61 29 0 46-22 51-63 4-39-7-59-35-59-29 0-46 21-51 61Zm181-106h116c54 0 80 22 76 60-3 24-16 42-39 51 27 9 39 27 36 52-4 34-35 50-91 50H510l25-213Zm57 45-6 46h42c24 0 37-8 39-24 2-15-10-22-34-22h-41Zm-11 88-5 42h48c24 0 37-7 39-21 2-14-10-21-35-21h-47Zm174-133h116c54 0 80 22 76 60-3 24-16 42-39 51 27 9 39 27 36 52-4 34-35 50-91 50H730l25-213Zm57 45-6 46h42c24 0 37-8 39-24 2-15-10-22-34-22h-41Z"/></g></svg><svg x="6834" y="4350" width="280" height="95" viewBox="0 0 760 260"><g fill="#eee8d8" transform="skewX(-7)"><path d="M31 39h68l-10 72h82l10-72h68l-26 184h-68l9-68H82l-9 68H5L31 39Zm250 0h68l-15 108c-4 27 8 40 34 40 27 0 42-13 46-40l15-108h68l-15 111c-7 52-42 78-101 78-58 0-84-27-77-80l16-109Zm226 0h176l-7 47H568l-4 31h94l-6 45h-94l-9 61h-68l26-184Zm197 0h174l-7 47H765l-5 33h91l-6 45h-91l-8 59h-68l26-184Z"/></g></svg><svg x="7398" y="620" width="760" height="230" viewBox="0 0 1500 420"><g fill="#eee8d8" transform="rotate(1.5 750 210)"><path d="M28 104l72-43 18 31-47 28 35 61-34 19-44-96Zm90 49c0-72 38-118 99-118 58 0 91 43 91 110 0 77-37 124-98 124-59 0-92-44-92-116Zm51-2c0 49 14 75 43 75 31 0 46-27 46-80 0-46-13-70-42-70-31 0-47 26-47 75Zm180-96h87c82 0 126 38 126 106 0 73-47 113-132 113h-81V55Zm54 44v132h26c50 0 77-23 77-68 0-43-25-64-74-64h-29Zm194-44h63l85 219h-57l-17-49h-91l-18 49h-54l89-219Zm30 56-32 75h62l-30-75Zm83-56h61l49 79 48-79h60l-83 127v92h-53v-92L710 55Zm219 0h59l44 92 44-92h57l-86 141v78h-53v-78L929 55Zm225 34c32-32 74-43 121-32 28 7 51 21 67 40l-36 32c-12-14-26-23-43-27-20-5-36-2-40 10-10 32 126 33 105 107-13 45-58 69-118 56-36-8-65-27-83-52l39-31c16 20 35 33 57 38 25 6 43 1 47-13 9-32-126-32-104-105 5-19 15-33 30-44Zm184-31 33 8-18 83-33-8 18-83Zm45 11 33 8-18 83-33-8 18-83Z"/></g></svg><svg x="7588" y="880" width="540" height="260" viewBox="0 0 900 430"><g fill="#eee8d8" stroke="#27251f" stroke-width="12"><path d="M35 84l238-32 132 85-6 213-242 35L38 302Z"/><path d="M474 91l228-22 143 79 2 209-235 34-142-76Z"/></g><g fill="#27251f"><circle cx="128" cy="139" r="21"/><circle cx="309" cy="291" r="21"/><circle cx="218" cy="215" r="21"/><circle cx="553" cy="151" r="21"/><circle cx="761" cy="291" r="21"/><circle cx="658" cy="221" r="21"/><circle cx="548" cy="303" r="21"/><circle cx="759" cy="157" r="21"/></g></svg><svg x="7618" y="1250" width="565" height="370" viewBox="0 0 1600 520"><path fill="#120f0d" d="M15 54c230 34 481 73 749 127 297 60 568 131 818 215-327-20-637-18-923 3-290 22-504 65-642 126 111-132 110-289-2-471Z"/><path fill="#eee8d8" d="M31 72l120 25-62 161L31 72Zm130 28 129 29-74 155-55-184Zm141 32 132 33-83 147-49-180Zm146 37 133 36-90 139-43-175Zm147 40 134 39-96 131-38-170Zm148 43 133 42-101 121-32-163Zm148 46 132 44-105 110-27-154Zm147 48 131 47-108 98-23-145Zm146 51 126 50-109 85-17-135Zm141 54 116 52-106 68-10-120Z"/><path fill="#eee8d8" d="M55 474l99-54 20 92-119-38Zm126-61 112-38 8 106-120-68Zm128-43 122-23-9 111-113-88Zm135-27 126-9-24 114-102-105Zm138-12 128 5-40 113-88-118Zm140 8 128 19-54 106-74-125Zm140 23 124 33-67 96-57-129Zm136 38 117 46-80 83-37-129Zm129 51 104 58-87 66-17-124Z"/></svg><svg x="7338" y="300" width="380" height="120" viewBox="0 0 900 280"><g fill="#eee8d8" transform="rotate(3 450 140) skewX(-10)"><path d="M29 62h132c73 0 107 29 100 81-4 34-25 56-61 66l49 70h-80l-40-61H92l-8 61H18L29 62Zm73 50-7 56h45c32 0 49-10 51-31 3-17-11-25-42-25h-47Zm186 58c8-70 56-114 125-114 67 0 105 43 97 113-8 71-56 116-125 116-67 0-105-44-97-115Zm68 0c-5 41 7 62 35 62 30 0 48-22 52-64 5-40-7-60-35-60-30 0-48 21-52 62Zm185-108h119c55 0 82 23 78 61-3 25-17 43-40 52 27 9 40 27 37 53-4 35-36 51-93 51H515l26-217Zm58 46-6 47h43c25 0 38-8 40-24 2-15-10-23-35-23h-42Zm-11 90-6 43h50c24 0 38-7 40-22 2-14-10-21-36-21h-48Zm178-136h119c55 0 82 23 78 61-3 25-17 43-40 52 27 9 40 27 37 53-4 35-36 51-93 51H740l26-217Zm58 46-6 47h43c25 0 38-8 40-24 2-15-10-23-35-23h-42Z"/></g></svg><svg x="7388" y="4700" width="770" height="230" viewBox="0 0 1500 420"><g fill="#eee8d8" transform="rotate(-2 750 210)"><path d="M35 112l68-45 19 28-45 29 38 59-32 20-48-91Zm87 43c0-71 37-117 96-117 56 0 88 43 88 109 0 75-36 122-95 122-57 0-89-44-89-114Zm49-2c0 48 13 74 42 74 30 0 45-27 45-79 0-45-13-69-41-69-30 0-46 26-46 74Zm175-97h84c81 0 124 37 124 104 0 72-46 112-130 112h-78V56Zm52 43v130h25c49 0 75-22 75-67 0-42-24-63-72-63h-28Zm189-43h62l83 216h-56l-16-48h-90l-17 48h-53l87-216Zm29 55-31 74h61l-30-74Zm81-55h60l48 78 47-78h59l-81 125v91h-52v-91L697 56Zm214 0h58l43 91 43-91h56l-84 139v77h-52v-77L911 56Zm221 33c31-31 72-42 118-31 27 6 50 20 65 39l-35 31c-12-13-25-22-42-26-20-5-35-2-39 10-10 31 123 32 102 105-12 44-56 68-115 55-35-8-64-26-81-51l38-30c16 20 34 32 56 37 24 6 42 1 46-13 9-31-123-31-102-103 5-18 15-32 29-43Zm181-30 32 7-18 82-32-7 18-82Zm43 10 32 7-18 82-32-7 18-82Z"/></g></svg><svg x="7578" y="4970" width="550" height="260" viewBox="0 0 900 430"><g fill="#eee8d8" stroke="#27251f" stroke-width="12"><path d="M42 92l242-42 126 92-14 209-245 31L42 283Z"/><path d="M470 105l231-35 144 85-5 206-239 28-137-79Z"/></g><g fill="#27251f"><circle cx="132" cy="145" r="22"/><circle cx="306" cy="289" r="22"/><circle cx="217" cy="220" r="22"/><circle cx="552" cy="160" r="22"/><circle cx="754" cy="292" r="22"/><circle cx="655" cy="226" r="22"/></g></svg><svg x="7608" y="5350" width="575" height="370" viewBox="0 0 1600 520"><path fill="#120f0d" d="M18 70C260 103 520 142 786 195c286 56 552 124 796 207-338-35-649-50-928-45-284 5-493 35-627 89 101-119 103-250-9-376Z"/><path fill="#eee8d8" d="M37 85l112 23-54 151-58-174Zm122 25 122 27-67 147-55-174Zm133 31 125 31-76 139-49-170Zm138 34 126 34-81 132-45-166Zm139 38 126 37-88 124-38-161Zm139 41 126 39-91 116-35-155Zm139 42 126 41-94 105-32-146Zm140 45 126 43-98 94-28-137Zm140 47 122 45-101 80-21-125Zm137 50 112 48-101 62-11-110Z"/><path fill="#eee8d8" d="M81 424l92-50 19 89-111-39Zm116-56 107-33 5 101-112-68Zm122-38 115-18-10 106-105-88Zm127-21 118-5-23 108-95-103Zm129-8 118 7-36 106-82-113Zm130 9 117 20-49 100-68-120Zm130 23 113 32-60 92-53-124Zm126 36 105 44-68 81-37-125Zm119 49 94 55-75 67-19-122Z"/></svg><svg x="7338" y="4400" width="380" height="120" viewBox="0 0 900 280"><g fill="#eee8d8" transform="skewX(-8)"><path d="M35 58h129c71 0 105 28 99 79-4 33-24 55-59 65l48 69h-78l-39-60H99l-8 60H26L35 58Zm72 49-7 55h44c31 0 48-10 50-30 3-17-11-25-41-25h-46Zm181 57c8-69 55-112 122-112 66 0 103 42 95 111-8 70-55 114-122 114-66 0-103-43-95-113Zm66 0c-4 40 7 61 35 61 29 0 46-22 51-63 4-39-7-59-35-59-29 0-46 21-51 61Zm181-106h116c54 0 80 22 76 60-3 24-16 42-39 51 27 9 39 27 36 52-4 34-35 50-91 50H510l25-213Zm57 45-6 46h42c24 0 37-8 39-24 2-15-10-22-34-22h-41Zm-11 88-5 42h48c24 0 37-7 39-21 2-14-10-21-35-21h-47Zm174-133h116c54 0 80 22 76 60-3 24-16 42-39 51 27 9 39 27 36 52-4 34-35 50-91 50H730l25-213Zm57 45-6 46h42c24 0 37-8 39-24 2-15-10-22-34-22h-41Z"/></g></svg><svg x="7858" y="4350" width="280" height="95" viewBox="0 0 760 260"><g fill="#eee8d8" transform="skewX(-7)"><path d="M31 39h68l-10 72h82l10-72h68l-26 184h-68l9-68H82l-9 68H5L31 39Zm250 0h68l-15 108c-4 27 8 40 34 40 27 0 42-13 46-40l15-108h68l-15 111c-7 52-42 78-101 78-58 0-84-27-77-80l16-109Zm226 0h176l-7 47H568l-4 31h94l-6 45h-94l-9 61h-68l26-184Zm197 0h174l-7 47H765l-5 33h91l-6 45h-91l-8 59h-68l26-184Z"/></g></svg><svg x="60" y="160" width="900" height="1450" viewBox="0 0 700 1100"><g fill="#eee8d8"><path d="M58 89h85l-48 75h58v57H35v-50l58-82H58Zm119 0h136v54l-68 78h74v58H168v-53l69-79h-60V89Zm173 0h140v56l-73 76h80v58H340v-56l73-75h-63V89Zm180 0h133v58l-69 75h77v57H522v-55l70-77h-62V89Z"/><path d="M76 337h148v63l-75 85h83v65H66v-64l77-84H76v-65Zm194 0h160v60l-82 87h90v66H259v-65l85-86h-74v-62Zm206 0h160v60l-82 87h90v66H465v-65l85-86h-74v-62Z"/><path d="M350 646 82 1018h536Z"/></g></svg><svg x="1080" y="4300" width="900" height="1450" viewBox="0 0 700 1100"><g fill="#eee8d8"><path d="M64 93h82l-46 72h55v55H41v-48l55-79H64Zm113 0h131v52l-65 75h71v56H168v-51l66-76h-57V93Zm167 0h135v54l-70 73h77v56H335v-54l70-72h-61V93Zm173 0h128v56l-66 72h74v55H510v-53l67-74h-60V93Z"/><path d="M83 339h142v61l-72 82h80v63H73v-62l74-82H83v-62Zm187 0h154v58l-79 84h87v64H259v-63l82-83h-71v-60Zm198 0h154v58l-79 84h87v64H457v-63l82-83h-71v-60Z"/><path d="M350 650 91 1010h518Z"/></g></svg></g></svg>