<svg xmlns="http://www.w3.org/2000/svg" viewBox="0 0 1600 520"><path fill="#120f0d" d="M18 70C260 103 520 142 786 195c286 56 552 124 796 207-338-35-649-50-928-45-284 5-493 35-627 89 101-119 103-250-9-376Z"/><path fill="#eee8d8" d="M37 85l112 23-54 151-58-174Zm122 25 122 27-67 147-55-174Zm133 31 125 31-76 139-49-170Zm138 34 126 34-81 132-45-166Zm139 38 126 37-88 124-38-161Zm139 41 126 39-91 116-35-155Zm139 42 126 41-94 105-32-146Zm140 45 126 43-98 94-28-137Zm140 47 122 45-101 80-21-125Zm137 50 112 48-101 62-11-110Z"/><path fill="#eee8d8" d="M81 424l92-50 19 89-111-39Zm116-56 107-33 5 101-112-68Zm122-38 115-18-10 106-105-88Zm127-21 118-5-23 108-95-103Zm129-8 118 7-36 106-82-113Zm130 9 117 20-49 100-68-120Zm130 23 113 32-60 92-53-124Zm126 36 105 44-68 81-37-125Zm119 49 94 55-75 67-19-122Z"/></svg>
