<svg xmlns="http://www.w3.org/2000/svg" viewBox="0 0 900 280"><g fill="#eee8d8" transform="rotate(3 450 140) skewX(-10)"><path d="M29 62h132c73 0 107 29 100 81-4 34-25 56-61 66l49 70h-80l-40-61H92l-8 61H18L29 62Zm73 50-7 56h45c32 0 49-10 51-31 3-17-11-25-42-25h-47Zm186 58c8-70 56-114 125-114 67 0 105 43 97 113-8 71-56 116-125 116-67 0-105-44-97-115Zm68 0c-5 41 7 62 35 62 30 0 48-22 52-64 5-40-7-60-35-60-30 0-48 21-52 62Zm185-108h119c55 0 82 23 78 61-3 25-17 43-40 52 27 9 40 27 37 53-4 35-36 51-93 51H515l26-217Zm58 46-6 47h43c25 0 38-8 40-24 2-15-10-23-35-23h-42Zm-11 90-6 43h50c24 0 38-7 40-22 2-14-10-21-36-21h-48Zm178-136h119c55 0 82 23 78 61-3 25-17 43-40 52 27 9 40 27 37 53-4 35-36 51-93 51H740l26-217Zm58 46-6 47h43c25 0 38-8 40-24 2-15-10-23-35-23h-42Z"/></g></svg>
